<svg xmlns="http://www.w3.org/2000/svg" xmlns:xlink="http://www.w3.org/1999/xlink" width="50" height="50" viewBox="0 0 50 50">
  <defs>
    <clipPath id="clip-awards">
      <rect width="50" height="50"/>
    </clipPath>
  </defs>
  <g id="awards" clip-path="url(#clip-awards)">
    <g id="award-svgrepo-com" transform="translate(-42.817 2.872)">
      <path id="Path_44" data-name="Path 44" d="M78.307,19.039h3.981l2.65-13.021H78.72V4.247h1.888V0H55.027V4.247h1.888V6.018H50.7l2.65,13.021h3.982A10.942,10.942,0,0,0,65.4,26.695v7.48H61.653V40.01H60.039v4.247H75.6V40.01H73.982V34.175H70.231v-7.48A10.942,10.942,0,0,0,78.307,19.039ZM83.125,7.5,81.078,17.557H78.617a10.954,10.954,0,0,0,.1-1.5V7.5ZM56.508,2.766V1.482H79.127V2.766ZM54.557,17.557,52.509,7.5h4.406v8.562a10.955,10.955,0,0,0,.1,1.5H54.557Zm3.84-1.5V4.247H77.238V16.062a9.421,9.421,0,0,1-18.842,0ZM74.114,41.491v1.284H61.521V41.491H74.114ZM72.5,40.01H63.135V35.656H72.5Zm-3.751-5.835H66.886v-7.25c.307.026.618.04.932.04s.625-.014.932-.04Z" fill="#e63036"/>
      <path id="Path_45" data-name="Path 45" d="M173.959,94H161.63v7.317h12.329Zm-1.482,5.835h-9.366V95.482h9.366Z" transform="translate(-99.977 -84.716)" fill="#e63036"/>
    </g>
  </g>
</svg>
