<svg xmlns="http://www.w3.org/2000/svg" xmlns:xlink="http://www.w3.org/1999/xlink" width="50" height="50" viewBox="0 0 50 50">
  <defs>
    <clipPath id="clip-Careers">
      <rect width="50" height="50"/>
    </clipPath>
  </defs>
  <g id="Careers" clip-path="url(#clip-Careers)">
    <g id="bag-svgrepo-com" transform="translate(4.134 -19.193)">
      <path id="Path_41" data-name="Path 41" d="M31.171,31.927a11.219,11.219,0,0,0-1.955-2.912,11.008,11.008,0,0,0-8.35-3.467,11.008,11.008,0,0,0-8.349,3.467,11.219,11.219,0,0,0-1.955,2.912H0v27a3.913,3.913,0,0,0,3.908,3.908H37.824a3.913,3.913,0,0,0,3.908-3.908v-27ZM29.6,52.794V50.532h1.971v2.262Zm-.195-4a1.546,1.546,0,0,0-1.544,1.544v2.651a1.546,1.546,0,0,0,1.544,1.544h.311v1.833h1.739V54.532h.311a1.546,1.546,0,0,0,1.544-1.544V50.337a1.546,1.546,0,0,0-1.544-1.544h-.311V45.786h3.711v10.47a1.285,1.285,0,0,1-1.283,1.284H7.847a1.285,1.285,0,0,1-1.283-1.284V45.786h3.71v3.007H9.963a1.546,1.546,0,0,0-1.544,1.544v2.651a1.546,1.546,0,0,0,1.544,1.544h.311v1.833h1.739V54.532h.311a1.546,1.546,0,0,0,1.544-1.544V50.337a1.546,1.546,0,0,0-1.544-1.544h-.311V45.786H29.719v3.007Zm-19.25,4V50.532H12.13v2.262Zm1.855-8.746V33.666H29.719V44.047ZM13.791,30.2a9.243,9.243,0,0,1,7.075-2.912,9.253,9.253,0,0,1,7.026,2.859,9.6,9.6,0,0,1,1.322,1.781h-16.7A9.606,9.606,0,0,1,13.791,30.2ZM1.739,33.666h8.536V44.047H3.908a2.172,2.172,0,0,1-2.17-2.169ZM37.824,61.1H3.908a2.172,2.172,0,0,1-2.17-2.169v-13.8a3.885,3.885,0,0,0,2.17.659h.917v10.47a3.026,3.026,0,0,0,3.022,3.022H33.885a3.026,3.026,0,0,0,3.022-3.022V45.786h.917a3.885,3.885,0,0,0,2.169-.659v13.8A2.172,2.172,0,0,1,37.824,61.1Zm0-17.052H31.458V33.666h8.536v8.212A2.172,2.172,0,0,1,37.824,44.047Z" fill="#e63036"/>
      <path id="Path_42" data-name="Path 42" d="M177.116,292.4h10.935v-7.055H177.116Zm1.739-5.316h7.457v3.577h-7.457Z" transform="translate(-161.717 -237.206)" fill="#e63036"/>
    </g>
  </g>
</svg>
