<svg xmlns="http://www.w3.org/2000/svg" xmlns:xlink="http://www.w3.org/1999/xlink" width="50" height="50" viewBox="0 0 50 50">
  <defs>
    <clipPath id="clip-Culture">
      <rect width="50" height="50"/>
    </clipPath>
  </defs>
  <g id="Culture" clip-path="url(#clip-Culture)">
    <g id="hands-catch-svgrepo-com" transform="translate(3.968 3.968)">
      <g id="Group_23" data-name="Group 23" transform="translate(-1 -1)">
        <g id="Group_22" data-name="Group 22">
          <path id="Path_49" data-name="Path 49" d="M16.185,146.55a7.441,7.441,0,0,0-1.028,1.469v-8.813a2.832,2.832,0,0,0-2.57-2.938,2.37,2.37,0,0,0-1.542.588,2.606,2.606,0,0,0-2.13-1.322,2.659,2.659,0,0,0-2.35,1.909A2,2,0,0,0,5.316,137a2.893,2.893,0,0,0-2.644,2.5,2.432,2.432,0,0,0-1.1-.294A2.832,2.832,0,0,0-1,142.143v14.467c0,3.452,0,3.672,1.4,5.434l.073.147v2.717c0,.808,0,2.938,2.57,2.938h9.106c1.542,0,2.277-.955,2.277-3.011v-2.423a6.767,6.767,0,0,0,3.672-6.242c0-1.763.661-5.141,1.763-6.683,1.322-1.763.294-2.791,0-3.084A2.975,2.975,0,0,0,16.185,146.55Zm2.5,2.2a16.05,16.05,0,0,0-2.056,7.564,5.067,5.067,0,0,1-2.986,4.92h-1.42a.734.734,0,0,0,0,1.469h.734v2.2c0,1.248-.294,1.469-.808,1.469H3.039c-1.028,0-1.1-.367-1.1-1.469v-2.2h.734a.734.734,0,0,0,0-1.469H1.57c-1.1-1.469-1.1-1.469-1.1-4.627V142.143c0-.588.441-1.469,1.1-1.469.588,0,1.1.808,1.1,1.469v9.547a.694.694,0,0,0,.734.734.694.694,0,0,0,.734-.734V139.94c0-.588.514-1.469,1.175-1.469.514,0,1.028.808,1.028,1.469v11.016a.694.694,0,0,0,.734.734.694.694,0,0,0,.734-.734V138.471c0-.588.441-1.469,1.1-1.469.588,0,1.1.808,1.1,1.469v12.484a.734.734,0,1,0,1.469,0v-11.75c0-.661.441-1.469,1.1-1.469.588,0,1.1.808,1.1,1.469v13.88a.728.728,0,0,0,.808.588.781.781,0,0,0,.661-.734,8.94,8.94,0,0,1,2.13-5.214,1.321,1.321,0,0,1,1.616-.073C19.2,147.872,18.975,148.386,18.681,148.753Z" transform="translate(1 -123.784)" fill="#e63036"/>
          <path id="Path_50" data-name="Path 50" d="M279.946,140.058a2.072,2.072,0,0,0-1.1.294,2.818,2.818,0,0,0-2.57-2.5,2.56,2.56,0,0,0-1.248.441,2.672,2.672,0,0,0-2.423-1.909,2.507,2.507,0,0,0-2.13,1.322,2.37,2.37,0,0,0-1.542-.588,2.832,2.832,0,0,0-2.57,2.938v8.813a5.761,5.761,0,0,0-1.028-1.469,2.983,2.983,0,0,0-3.672-.147c-.294.22-1.322,1.322,0,3.084,1.1,1.542,1.763,4.92,1.763,6.683a6.767,6.767,0,0,0,3.672,6.242v2.423c0,.734,0,2.938,2.277,2.938h9.106c2.57,0,2.57-2.056,2.57-2.937v-2.717h.073c1.4-1.836,1.4-2.056,1.4-5.508V143A2.832,2.832,0,0,0,279.946,140.058Zm1.1,17.332c0,3.158,0,3.158-1.1,4.627h-1.1a.734.734,0,0,0,0,1.469h.734v2.2c0,1.028-.147,1.4-1.1,1.4H269.37c-.588,0-.808-.22-.808-1.469v-2.13h.734a.734.734,0,0,0,0-1.469h-1.248a4.963,4.963,0,0,1-3.158-4.994,16.049,16.049,0,0,0-2.056-7.564c-.294-.367-.514-.881-.22-1.1a1.48,1.48,0,0,1,.808-.22,3.153,3.153,0,0,1,.881.147,9.754,9.754,0,0,1,2.056,5.288.781.781,0,0,0,.661.734.677.677,0,0,0,.808-.514V139.985c0-.661.514-1.469,1.1-1.469.661,0,1.1.808,1.1,1.469v11.75a.734.734,0,0,0,1.469,0V139.25c0-.661.514-1.469,1.1-1.469.661,0,1.1.881,1.1,1.469v12.485a.734.734,0,1,0,1.469,0V140.719c0-.661.441-1.469,1.028-1.469.661,0,1.175.881,1.175,1.469v11.75a.734.734,0,1,0,1.469,0v-9.547c0-.661.514-1.469,1.1-1.469.661,0,1.1.881,1.1,1.469v14.467Z" transform="translate(-238.453 -124.562)" fill="#e63036"/>
          <path id="Path_51" data-name="Path 51" d="M247.936,7.078V-.266A.694.694,0,0,0,247.2-1a.694.694,0,0,0-.734.734V7.078a.734.734,0,0,0,1.469,0Z" transform="translate(-225.17 1)" fill="#e63036"/>
          <path id="Path_52" data-name="Path 52" d="M315.468,23.41a.667.667,0,0,0,.514-.22l5.875-5.875a.727.727,0,0,0-1.028-1.028l-5.875,5.875a.71.71,0,0,0,0,1.028A.667.667,0,0,0,315.468,23.41Z" transform="translate(-287.561 -14.598)" fill="#e63036"/>
          <path id="Path_53" data-name="Path 53" d="M124.56,23.19a.71.71,0,0,0,1.028,0,.71.71,0,0,0,0-1.028l-5.875-5.875a.727.727,0,1,0-1.028,1.028Z" transform="translate(-108.184 -14.598)" fill="#e63036"/>
        </g>
      </g>
    </g>
  </g>
</svg>
