<svg xmlns="http://www.w3.org/2000/svg" xmlns:xlink="http://www.w3.org/1999/xlink" width="50" height="50" viewBox="0 0 50 50">
  <defs>
    <clipPath id="clip-Management">
      <rect width="50" height="50"/>
    </clipPath>
  </defs>
  <g id="Management" clip-path="url(#clip-Management)">
    <path id="manager-profile-svgrepo-com" d="M49.613,46.386H7.9a.686.686,0,0,1-.687-.687V37.732a7.458,7.458,0,0,1,4.711-6.958L21.8,26.827a.687.687,0,0,1,.9.4l2.9,8.031.956-2.748-.845-2.065a.686.686,0,0,1,.635-.946h4.821a.686.686,0,0,1,.635.946l-.845,2.065.956,2.748,2.9-8.031a.687.687,0,0,1,.9-.4l9.869,3.947A7.458,7.458,0,0,1,50.3,37.733V45.7A.687.687,0,0,1,49.613,46.386ZM8.59,45.013H48.927v-7.28a6.092,6.092,0,0,0-3.848-5.683L35.87,28.365l-3.322,9.183a.687.687,0,0,1-1.294-.008L29.578,32.72a.685.685,0,0,1,.013-.485l.556-1.359H27.37l.556,1.359a.688.688,0,0,1,.013.486l-1.677,4.821a.687.687,0,0,1-1.294.008l-3.322-9.183-9.21,3.684A6.091,6.091,0,0,0,8.59,37.732Zm35.754-1.63H36.66a.686.686,0,0,1-.687-.687v-4.73a.686.686,0,0,1,.687-.687h7.684a.686.686,0,0,1,.687.687V42.7A.687.687,0,0,1,44.344,43.383Zm-7-1.373h6.311V38.653H37.347ZM28.758,26.665a8.314,8.314,0,0,1-3.08-.587,5.893,5.893,0,0,1-1.862-1.125,19.974,19.974,0,0,1-3.193-4.887c-.858-.042-2.617-.5-3.378-3.41A4.262,4.262,0,0,1,17.5,13.2a2.537,2.537,0,0,1,.987-.892,14.392,14.392,0,0,1,.06-1.516c-.483-.737-1.538-2.935.274-6.152v0l0,0h0l.01-.018h0l0-.008.005-.009v0a4.308,4.308,0,0,1,3.8-2.512h0a3.956,3.956,0,0,1,.706.064C23.851,1.287,25.232,0,29.087,0h.194a11.344,11.344,0,0,1,5.836,1.747,8.805,8.805,0,0,1,4.227,4.9,7.057,7.057,0,0,1,.234,1.927h0v0h0v0h0v0h0v.007a14.542,14.542,0,0,1-.549,3.645c0,.025,0,.05,0,.074a2.535,2.535,0,0,1,.987.892,4.261,4.261,0,0,1,.256,3.454c-.761,2.911-2.52,3.369-3.378,3.411A19.973,19.973,0,0,1,33.7,24.954a5.891,5.891,0,0,1-1.862,1.125A8.3,8.3,0,0,1,28.758,26.665Zm-7.722-7.988a.7.7,0,0,1,.632.395,21.08,21.08,0,0,0,3.085,4.878,4.545,4.545,0,0,0,1.431.852,7,7,0,0,0,5.147,0,4.547,4.547,0,0,0,1.431-.852,21.085,21.085,0,0,0,3.085-4.878.688.688,0,0,1,.759-.383h0a1.178,1.178,0,0,0,.146.008c.585,0,1.646-.31,2.19-2.388a3.1,3.1,0,0,0-.066-2.338,1.142,1.142,0,0,0-.68-.515.674.674,0,0,1-.559-.733s.017-.213.019-.565a1.84,1.84,0,0,0-.4-1.048A23.862,23.862,0,0,0,32.7,10.019c-.869-.168-1.854-.358-2.893-.57h0a8.11,8.11,0,0,1-1.741-.5,10.52,10.52,0,0,1-3.674-2.273,6.931,6.931,0,0,1-1.317,2.315A8.778,8.778,0,0,1,19.9,11.117a11.267,11.267,0,0,0-.021,1.606.687.687,0,0,1-.571.735,1.15,1.15,0,0,0-.668.513,3.1,3.1,0,0,0-.066,2.338c.544,2.078,1.606,2.388,2.19,2.388a1.045,1.045,0,0,0,.155-.01A.631.631,0,0,1,21.036,18.678ZM24.075,4.6a.687.687,0,0,1,.573.308,8.449,8.449,0,0,0,3.9,2.762l.038.015A6.742,6.742,0,0,0,30.06,8.1l.026.005c1.026.21,2.007.4,2.873.567,3.122.6,4.52.887,5.134,1.352A10.756,10.756,0,0,0,38.2,8.586h0v0h0v0h0v0h0v0h0v0a5.874,5.874,0,0,0-.158-1.459c-.008-.03-.016-.059-.024-.089-.017-.059-.037-.121-.059-.186A7.62,7.62,0,0,0,34.5,2.977a.7.7,0,0,1-.082-.044,9.976,9.976,0,0,0-5.154-1.558H29.26l-.173,0h0q-.164,0-.321,0h0C24.906,1.458,24.47,3,24.45,3.083c0,.017-.006.035-.01.052a.687.687,0,0,1-.632.529.675.675,0,0,1-.218-.024.707.707,0,0,1-.1-.035,2.423,2.423,0,0,0-.84-.144h0A3.045,3.045,0,0,0,20.031,5.3v0h0l0,0,0,.007v0h0c-1.262,2.24-.816,3.783-.476,4.463a7.4,7.4,0,0,0,2.517-1.717A6.923,6.923,0,0,0,23.4,5.154a.686.686,0,0,1,.541-.542A.667.667,0,0,1,24.075,4.6Z" transform="translate(-3.925 2.218)" fill="#e63036"/>
  </g>
</svg>
