<svg xmlns="http://www.w3.org/2000/svg" xmlns:xlink="http://www.w3.org/1999/xlink" width="50" height="50" viewBox="0 0 50 50">
  <defs>
    <clipPath id="clip-team">
      <rect width="50" height="50"/>
    </clipPath>
  </defs>
  <g id="team" clip-path="url(#clip-team)">
    <path id="users-three-thin-svgrepo-com" d="M54.118,66.4a.774.774,0,0,1-1.084-.154,10.752,10.752,0,0,0-8.667-4.333.774.774,0,0,1,0-1.548,5.417,5.417,0,1,0-5.321-6.434.774.774,0,1,1-1.521-.289A6.965,6.965,0,1,1,47.984,60.9a12.3,12.3,0,0,1,6.288,4.419A.774.774,0,0,1,54.118,66.4ZM43.044,80.149a.774.774,0,1,1-1.391.678,11.612,11.612,0,0,0-20.881,0,.774.774,0,1,1-1.391-.678,13.07,13.07,0,0,1,7.914-6.811,8.512,8.512,0,1,1,7.837,0,13.07,13.07,0,0,1,7.913,6.811Zm-11.832-7.4a6.964,6.964,0,1,0-6.964-6.964,6.964,6.964,0,0,0,6.964,6.964ZM18.057,60.369a5.417,5.417,0,1,1,5.321-6.435.774.774,0,0,0,1.52-.289A6.965,6.965,0,1,0,14.44,60.9a12.3,12.3,0,0,0-6.288,4.419.774.774,0,1,0,1.237.929,10.752,10.752,0,0,1,8.668-4.334.774.774,0,1,0,0-1.548Z" transform="translate(-6.381 -39.624)" fill="#e63036"/>
  </g>
</svg>
