<svg xmlns="http://www.w3.org/2000/svg" width="50.01" height="51.769" viewBox="0 0 50.01 51.769">
  <g id="MainSolution4_1645451490" transform="translate(-8.697)">
    <g id="Group_19" data-name="Group 19" transform="translate(8.697 28.524)">
      <g id="Group_18" data-name="Group 18" transform="translate(0)">
        <path id="Path_39" data-name="Path 39" d="M55.918,286.962a3.405,3.405,0,0,0-4.958-1.773l-8.444,5.067a6.388,6.388,0,0,1-2.482.5H35.259a.163.163,0,0,1-.146-.235.161.161,0,0,1,.091-.081l4.625-1.653a3.479,3.479,0,0,0,2.335-4.172,3.378,3.378,0,0,0-1.683-2.1,3.413,3.413,0,0,0-2.676-.224l-4.772,1.59-10.909.728a7.723,7.723,0,0,0-4.949,2.245L9.764,294.26a3.494,3.494,0,0,0-.276,4.722c.3.354,1.618,1.613,3.586,3.492,1.147,1.1,2.231,2.13,2.745,2.644a.81.81,0,0,0,1.111.034l5.478-4.855a4.384,4.384,0,0,1,2.792-1.007H36.6a10.26,10.26,0,0,0,4.065-.834l3.826-1.64.05-.023,2.084-1.066.048-.027,7.708-4.625A3.454,3.454,0,0,0,55.918,286.962Zm-2.373,2.723L45.86,294.3l-2.035,1.041-3.8,1.629a8.65,8.65,0,0,1-3.426.7H25.2a6.007,6.007,0,0,0-3.839,1.39l-.019.016-4.922,4.362c-.58-.563-1.387-1.333-2.227-2.136-1.426-1.362-3.2-3.056-3.477-3.377a1.892,1.892,0,0,1,.193-2.519l7.411-7.411a6.1,6.1,0,0,1,3.91-1.774l11.013-.734a.8.8,0,0,0,.2-.04l4.871-1.623a1.781,1.781,0,0,1,2.283,1.221,1.885,1.885,0,0,1-1.294,2.207l-.016.006-4.632,1.655a1.783,1.783,0,0,0,.6,3.463h4.775a8,8,0,0,0,3.169-.651.808.808,0,0,0,.1-.05l8.494-5.1a1.785,1.785,0,0,1,2.6.94A1.856,1.856,0,0,1,53.545,289.685Z" transform="translate(-8.697 -282.111)" fill="#e63036"/>
      </g>
    </g>
    <g id="Group_21" data-name="Group 21" transform="translate(34.613)">
      <g id="Group_20" data-name="Group 20">
        <path id="Path_40" data-name="Path 40" d="M280.239,3.885a29.979,29.979,0,0,0-2.568-3.6.81.81,0,0,0-1.23,0,29.97,29.97,0,0,0-2.568,3.6,12.047,12.047,0,1,0,6.366,0Zm5.837,6.379a10.41,10.41,0,0,1,1.374,4.43h-5.015a5.958,5.958,0,0,0,.618-2.647,9.954,9.954,0,0,0-.17-1.783Zm-1.16-1.621h-2.44a19.065,19.065,0,0,0-1.057-2.613A10.374,10.374,0,0,1,284.916,8.644Zm-7.86-6.533c1.335,1.748,4.375,6.147,4.375,9.936a4.382,4.382,0,0,1-3.565,4.3V8.59a.81.81,0,0,0-1.621,0v7.757a4.382,4.382,0,0,1-3.565-4.3C272.68,8.264,275.722,3.861,277.056,2.111Zm3.476,14.818a24.053,24.053,0,0,1-.475,3.816h-2.19V17.987A5.962,5.962,0,0,0,280.532,16.929Zm-4.286,1.059v2.757h-2.19a24.044,24.044,0,0,1-.475-3.816A5.96,5.96,0,0,0,276.246,17.987ZM272.694,6.031a19.062,19.062,0,0,0-1.057,2.613H269.2A10.38,10.38,0,0,1,272.694,6.031Zm-4.657,4.234h3.193a9.943,9.943,0,0,0-.17,1.783,5.958,5.958,0,0,0,.618,2.647h-5.015A10.409,10.409,0,0,1,268.037,10.264Zm.009,10.48a10.355,10.355,0,0,1-1.384-4.43h5.274a27.332,27.332,0,0,0,.479,4.43Zm1.167,1.621H272.8a12.4,12.4,0,0,0,1.3,3.138A10.45,10.45,0,0,1,269.212,22.365Zm7.844,3.565c-.832,0-1.851-1.279-2.576-3.565h1.766v.054a.81.81,0,0,0,1.621,0v-.054h1.766C278.907,24.652,277.888,25.931,277.056,25.931Zm2.954-.427a12.4,12.4,0,0,0,1.3-3.138H284.9A10.45,10.45,0,0,1,280.01,25.5Zm1.687-4.759a27.32,27.32,0,0,0,.479-4.43h5.274a10.351,10.351,0,0,1-1.384,4.43Z" transform="translate(-265.009)" fill="#e63036"/>
      </g>
    </g>
  </g>
</svg>
