<svg xmlns="http://www.w3.org/2000/svg" width="50.117" height="50.116" viewBox="0 0 50.117 50.116">
  <g id="MainSolution2_1645451419" transform="translate(0 -0.007)">
    <g id="Group_17" data-name="Group 17" transform="translate(0 0.007)">
      <g id="Group_16" data-name="Group 16" transform="translate(0 0)">
        <path id="Path_33" data-name="Path 33" d="M174.088,17.541c-.052.778-.083,1.61-.083,2.512,0,4.184,1.249,6.682,3.341,6.682,2.637,0,3.341-3.151,3.341-5.012a.835.835,0,1,0-1.67,0c0,.033-.072,3.341-1.671,3.341-.968,0-1.671-2.108-1.671-5.012,0-9.738,3.418-10.848,3.525-10.879a.835.835,0,0,0-.348-1.634,3.5,3.5,0,0,0-1.5.816,1.668,1.668,0,1,1,2.5,1.45.835.835,0,0,0,.836,1.447A3.351,3.351,0,1,0,176.068,9.9a14.316,14.316,0,0,0-1.759,5.484,8.22,8.22,0,1,1,3.727,2.568.835.835,0,1,0-.529,1.584,10.025,10.025,0,1,0-6.843-9.508A10.117,10.117,0,0,0,174.088,17.541Z" transform="translate(-153.959 -0.007)" fill="#e63036"/>
        <path id="Path_34" data-name="Path 34" d="M103.235,308.876h6.682c.974,0,2.631,1.243,4.093,2.339,1.833,1.375,3.563,2.673,5.1,2.673h5.012a2.907,2.907,0,0,1,1.915.591.835.835,0,0,0,1.181-1.181,4.434,4.434,0,0,0-3.1-1.08h-5.012c-.975,0-2.631-1.243-4.093-2.339-1.833-1.375-3.564-2.673-5.1-2.673h-6.682a.835.835,0,0,0,0,1.671Z" transform="translate(-92.377 -277.136)" fill="#e63036"/>
        <path id="Path_35" data-name="Path 35" d="M333.9,160.271l8.43,8.43v3h-3l-.346-.346v-2.16a.834.834,0,0,0-.835-.835h-.835v-.835a.834.834,0,0,0-.835-.835H334.32l-.347-.347v-2.159a.834.834,0,0,0-.835-.835h-2.16l-.081-.081a.835.835,0,1,0-1.181,1.181l.326.326a.835.835,0,0,0,.591.245h1.67v1.669a.837.837,0,0,0,.244.591l.835.836a.835.835,0,0,0,.591.246h1.671v.835a.835.835,0,0,0,.835.835h.835V171.7a.835.835,0,0,0,.245.591l.835.835a.835.835,0,0,0,.591.245h4.176a.835.835,0,0,0,.835-.835v-4.176a.837.837,0,0,0-.245-.591l-8.675-8.675a.835.835,0,1,0-1.181,1.181Z" transform="translate(-297.221 -143.297)" fill="#e63036"/>
        <path id="Path_36" data-name="Path 36" d="M19.573,444.992a1.253,1.253,0,1,0-1.253,1.253A1.254,1.254,0,0,0,19.573,444.992Z" transform="translate(-15.396 -400.305)" fill="#e63036"/>
        <path id="Path_37" data-name="Path 37" d="M5.847,273.072H.835a.835.835,0,0,0,0,1.67H5.847a.836.836,0,0,1,.835.835v18.376a.837.837,0,0,1-.835.835H.835a.835.835,0,0,0,0,1.67H5.847a2.509,2.509,0,0,0,2.506-2.506V275.578A2.508,2.508,0,0,0,5.847,273.072Z" transform="translate(0 -246.344)" fill="#e63036"/>
        <path id="Path_38" data-name="Path 38" d="M142.045,342.944a3.331,3.331,0,0,0-4.512-1.25l-9.613,4.679c-1.5.748-3,.748-6.309.748a64.024,64.024,0,0,1-8.216-.824.835.835,0,1,0-.275,1.648,64.328,64.328,0,0,0,8.49.847c3.468,0,5.209,0,7.047-.92l9.658-4.7a1.671,1.671,0,1,1,1.646,2.908L128.67,353.1c-.023.015-2.433,1.534-7.894,1.534-4.735,0-12.05-4.031-12.156-4.089a12.894,12.894,0,0,0-5.385-.923.835.835,0,0,0,0,1.67,11.851,11.851,0,0,1,4.606.73c.316.175,7.766,4.282,12.935,4.282,6.03,0,8.705-1.737,8.794-1.8l11.253-7a3.342,3.342,0,0,0,1.223-4.564Z" transform="translate(-92.377 -307.863)" fill="#e63036"/>
      </g>
    </g>
  </g>
</svg>
