<svg xmlns="http://www.w3.org/2000/svg" xmlns:xlink="http://www.w3.org/1999/xlink" width="50" height="50" viewBox="0 0 50 50">
  <defs>
    <clipPath id="clip-MainSolution1_1645451357">
      <rect width="50" height="50"/>
    </clipPath>
  </defs>
  <g id="MainSolution1_1645451357" clip-path="url(#clip-MainSolution1_1645451357)">
    <g id="piggybank-pig-svgrepo-com" transform="translate(3.703 -32.28)">
      <g id="Group_9" data-name="Group 9" transform="translate(21.104 65.331)">
        <g id="Group_8" data-name="Group 8">
          <path id="Path_29" data-name="Path 29" d="M252.877,352.2a.682.682,0,0,0-.682.682v1.455a.682.682,0,0,0,1.365,0v-1.455A.682.682,0,0,0,252.877,352.2Z" transform="translate(-252.195 -352.204)" fill="#e63036"/>
        </g>
      </g>
      <g id="Group_11" data-name="Group 11" transform="translate(0 39.132)">
        <g id="Group_10" data-name="Group 10">
          <path id="Path_30" data-name="Path 30" d="M42.433,55.556a1.4,1.4,0,0,0-1-.413H39.684c-.022,0-.037-.025-.042-.048a14.527,14.527,0,0,0-8.719-10.516,7.207,7.207,0,0,0-2.529-4.118,6.611,6.611,0,0,0-2.872-1.322.682.682,0,0,0-.779.675V43.5H22.267a5.048,5.048,0,0,0-9.732.134A14.511,14.511,0,0,0,0,58.008c0,8.1,4.205,14.692,5.495,16.519a2.136,2.136,0,0,0,1.744.9h2.9a2.14,2.14,0,0,0,2.138-2.138v-.944a14.66,14.66,0,0,0,2.229.171h6.6v.773a2.14,2.14,0,0,0,2.138,2.138h3.19a2.149,2.149,0,0,0,2.09-1.69l.35-1.634a14.519,14.519,0,0,0,9.864-8.32h2.7a1.412,1.412,0,0,0,1.41-1.41V56.553A1.4,1.4,0,0,0,42.433,55.556ZM17.42,41.225a3.682,3.682,0,0,1,3.363,5.185H14.057a3.682,3.682,0,0,1,3.363-5.185Zm24.061,21.15a.046.046,0,0,1-.046.046H39.249a14.441,14.441,0,0,0,.666-3.649.682.682,0,1,0-1.363-.071,13.154,13.154,0,0,1-9.358,11.9l.953-4.448a.682.682,0,0,0-1.334-.286l-1.625,7.582a.777.777,0,0,1-.756.611h-3.19a.774.774,0,0,1-.773-.773V70.38a.682.682,0,0,0-1.365,0v.773h-6.6a13.279,13.279,0,0,1-2.229-.189v-4.95a.682.682,0,0,0-1.365,0v7.277a.774.774,0,0,1-.773.773h-2.9a.76.76,0,0,1-.629-.324C5.379,72,1.365,65.707,1.365,58.008A13.147,13.147,0,0,1,12.374,45.037,5.064,5.064,0,0,0,12.6,46.41h-.274a.682.682,0,0,0,0,1.365H22.514a.682.682,0,0,0,0-1.365h-.274a5.062,5.062,0,0,0,.228-1.5c0-.015,0-.03,0-.046h2.275v1.5a.682.682,0,1,0,1.365,0V40.71c1.294.49,3.73,1.995,3.73,6.382a.682.682,0,1,0,1.365,0c0-.289-.01-.594-.034-.91A13.161,13.161,0,0,1,38.3,55.367a1.419,1.419,0,0,0,1.379,1.14h1.751a.045.045,0,0,1,.045.045v5.822Z" transform="translate(0 -39.132)" fill="#e63036"/>
        </g>
      </g>
      <g id="Group_13" data-name="Group 13" transform="translate(29.904 53.687)">
        <g id="Group_12" data-name="Group 12" transform="translate(0 0)">
          <path id="Path_31" data-name="Path 31" d="M362.97,214.96a3,3,0,0,0-5.578,0,.682.682,0,0,0,1.279.477,1.633,1.633,0,0,1,3.021,0,.682.682,0,0,0,1.279-.477Z" transform="translate(-357.349 -213.061)" fill="#e63036"/>
        </g>
      </g>
      <g id="Group_15" data-name="Group 15" transform="translate(13.099 51.868)">
        <g id="Group_14" data-name="Group 14" transform="translate(0 0)">
          <path id="Path_32" data-name="Path 32" d="M161.538,196.94v-3.487c1.338.163,2.274.783,2.274,1.346a.682.682,0,1,0,1.365,0c0-1.395-1.551-2.516-3.639-2.719V192a.682.682,0,1,0-1.365,0v.078c-2.088.2-3.639,1.324-3.639,2.719,0,1.992,1.968,2.711,3.639,3.181v3.487c-1.338-.163-2.274-.783-2.274-1.346a.682.682,0,1,0-1.365,0c0,1.395,1.551,2.516,3.639,2.719v.078a.682.682,0,0,0,1.365,0v-.078c2.088-.2,3.639-1.324,3.639-2.719C165.177,198.129,163.209,197.41,161.538,196.94Zm-1.365-.388c-1.68-.527-2.274-1.006-2.274-1.753,0-.563.936-1.183,2.274-1.346Zm1.365,4.915v-3.1c1.68.527,2.274,1.006,2.274,1.753C163.812,200.684,162.877,201.3,161.538,201.467Z" transform="translate(-156.535 -191.32)" fill="#e63036"/>
        </g>
      </g>
    </g>
  </g>
</svg>
