<svg xmlns="http://www.w3.org/2000/svg" xmlns:xlink="http://www.w3.org/1999/xlink" width="50" height="50" viewBox="0 0 50 50">
  <defs>
    <clipPath id="clip-MainSolution3_1645451461">
      <rect width="50" height="50"/>
    </clipPath>
  </defs>
  <g id="MainSolution3_1645451461" clip-path="url(#clip-MainSolution3_1645451461)">
    <path id="Money-bag" d="M23.608,7.6c4.825.874,9.4-2.057,8.035-5.15l0,0a26.245,26.245,0,0,1-12.6-.055C17.98,5.088,20.74,7.082,23.608,7.6Zm1.737,13.234a4.176,4.176,0,0,0-3.095,1.15,3.987,3.987,0,0,0-.172,3.658,2.461,2.461,0,0,0,1.345.889,7.617,7.617,0,0,0,1.921.3v-6Zm1.45,7.467v6.822c4.937-.368,4.328-5.659,1.571-6.555A6.21,6.21,0,0,0,26.794,28.3Zm-1.45-8.9c0-1.252-.181-2.12.725-2.167a.716.716,0,0,1,.725.717v1.455c3.178.2,4.3,1.847,4.228,3.226a.725.725,0,0,1-1.446-.1c.04-1.14-1.586-1.6-2.782-1.688v6.027c2.987.156,4.9,1.53,5.064,4.451.177,3.214-1.755,5.042-5.064,5.242,0,1.275.116,1.671-.24,1.987a.724.724,0,0,1-1.21-.533V36.569c-1.764-.07-4.05-.471-4.823-2.06-.985-2.025,1.113-2.437,1.2-1.024.114,1.3,2.316,1.589,3.621,1.649V28.269c-3.23-.157-5.194-1.27-5.066-4.463.118-2.962,1.8-4.191,4.855-4.394Zm-.423-9.694c-6.072,3.3-13.253,9-15.077,15.7a15.088,15.088,0,0,0,3.013,13.1c14.987,18.619,48-9.819,12.743-28.793ZM20.947,8.263c-5.01-2.327-3.938-7.256-1.953-7.31a26.517,26.517,0,0,0,11.948.19c.725-.172,1.35-.259,1.859.433.969,1.315,1.014,4.8-3.059,6.686a.716.716,0,0,1-.116,1.413c-1.6.054-1.526-.3.968,1.4,30.454,20.759-3.713,47.629-19,28.165a16.494,16.494,0,0,1-3.149-14.2c1.569-5.76,6.6-10.571,11.52-13.96,2.467-1.7,2.577-1.395,1.148-1.395a.715.715,0,0,1-.165-1.413Z" transform="translate(-0.385 1.539)" fill="#e63036" fill-rule="evenodd"/>
  </g>
</svg>
