<svg xmlns="http://www.w3.org/2000/svg" xmlns:xlink="http://www.w3.org/1999/xlink" width="76" height="50" viewBox="0 0 76 50">
  <defs>
    <clipPath id="clip-YourNeedIcon2_1645451133">
      <rect width="76" height="50"/>
    </clipPath>
  </defs>
  <g id="YourNeedIcon2_1645451133" clip-path="url(#clip-YourNeedIcon2_1645451133)">
    <g id="YourNeedIcon2_1645166440" transform="translate(4.213 -617.018)">
      <g id="Group_5" data-name="Group 5" transform="translate(-1.116 619.424)">
        <g id="Group_4" data-name="Group 4">
          <path id="Path_15" data-name="Path 15" d="M119.849,762.81a10.508,10.508,0,1,0,10.566,10.507A10.493,10.493,0,0,0,119.849,762.81Zm0,18.81a8.3,8.3,0,1,1,8.362-8.3A8.273,8.273,0,0,1,119.849,781.62Z" transform="translate(-93.323 -742.427)" fill="#e63036"/>
          <path id="Path_16" data-name="Path 16" d="M165.851,791.28a2.944,2.944,0,0,0-2.91-2.542h-.118a.97.97,0,0,1-.852-.823,1.113,1.113,0,0,1,.485-1.132c.015-.015.044-.015.059-.029a.671.671,0,0,1,.926.25,1.1,1.1,0,0,0,1.925-1.073,2.927,2.927,0,0,0-1.44-1.264v-1.455a1.1,1.1,0,0,0-2.2,0V784.7c-.059.029-.132.059-.191.088a3.286,3.286,0,0,0-1.763,3.439c0,.044.015.073.015.117a3.162,3.162,0,0,0,3.013,2.616h.118a.758.758,0,0,1,.735.661c0,.03.015.073.015.1a1.026,1.026,0,0,1-.529,1.205.741.741,0,0,1-.852-.353,1.1,1.1,0,0,0-1.925,1.073,2.948,2.948,0,0,0,1.367,1.249v1.469a1.1,1.1,0,1,0,2.2,0v-1.381c.044-.015.073-.029.118-.044.015-.015.044-.015.059-.029a3.248,3.248,0,0,0,1.749-3.63Z" transform="translate(-136.269 -758.891)" fill="#e63036"/>
          <path id="Path_17" data-name="Path 17" d="M111.3,681.81H60.8a1.1,1.1,0,1,0,0,2.2h49.407v24.909a1.11,1.11,0,0,0,1.1,1.1h0a1.076,1.076,0,0,0,1.087-1.087V682.912A1.11,1.11,0,0,0,111.3,681.81Z" transform="translate(-50.927 -673.331)" fill="#e63036"/>
          <path id="Path_18" data-name="Path 18" d="M52.052,737.11H1.1a1.11,1.11,0,0,0-1.1,1.1v26.379a1.11,1.11,0,0,0,1.1,1.1h50.95a1.11,1.11,0,0,0,1.1-1.1V738.212A1.1,1.1,0,0,0,52.052,737.11Zm-1.1,2.2v5.026l-4.938-5.026Zm-48.745,0h4.85L2.2,744.325Zm0,24.174v-5.011l4.85,5.011Zm48.76,0H46.027l4.938-5.026Zm0-8.185-8.024,8.171H10.125L2.2,755.3v-7.818l7.921-8.171H42.941l8.024,8.171V755.3Z" transform="translate(0 -720.504)" fill="#e63036"/>
          <path id="Path_19" data-name="Path 19" d="M168,624.11H117.5a1.1,1.1,0,0,0,0,2.2h49.392v24.792a1.1,1.1,0,1,0,2.2,0V625.212A1.11,1.11,0,0,0,168,624.11Z" transform="translate(-99.294 -624.11)" fill="#e63036"/>
        </g>
      </g>
    </g>
  </g>
</svg>
