<svg id="YourNeedIcon4_1645451259" xmlns="http://www.w3.org/2000/svg" width="50.113" height="50.113" viewBox="0 0 50.113 50.113">
  <g id="Group_7" data-name="Group 7">
    <g id="Group_6" data-name="Group 6">
      <path id="Path_20" data-name="Path 20" d="M326.225,280.4a6.567,6.567,0,0,0-1.959,4.807v4.176a.835.835,0,1,0,1.67,0v-4.176a4.905,4.905,0,0,1,1.426-3.586l5.846-5.847a1.762,1.762,0,0,1,1.164-.54,1.416,1.416,0,0,1,1.1.439,1.437,1.437,0,0,1,.439,1.1,1.761,1.761,0,0,1-.54,1.164l-4.176,4.176a.835.835,0,0,0,1.181,1.181l4.176-4.175a3.433,3.433,0,0,0,1.029-2.279,3.174,3.174,0,0,0-3.274-3.273,3.429,3.429,0,0,0-2.277,1.029Z" transform="translate(-292.528 -246.788)" fill="#e63036"/>
      <path id="Path_21" data-name="Path 21" d="M9.188,181.163a.835.835,0,0,0,.59-1.426l-6.729-6.725A4.8,4.8,0,0,1,1.67,169.47V156.942a1.67,1.67,0,1,1,3.341,0v6.612a.835.835,0,0,0,1.67,0v-6.612a3.341,3.341,0,0,0-6.682,0V169.47a6.454,6.454,0,0,0,1.915,4.767L8.6,180.919A.833.833,0,0,0,9.188,181.163Z" transform="translate(0 -138.567)" fill="#e63036"/>
      <path id="Path_22" data-name="Path 22" d="M51.7,276.842a3.429,3.429,0,0,0,1.029,2.278L56.9,283.3a.835.835,0,1,0,1.181-1.181l-4.176-4.177a1.758,1.758,0,0,1-.54-1.163,1.437,1.437,0,0,1,.439-1.1,1.419,1.419,0,0,1,1.1-.439,1.761,1.761,0,0,1,1.164.54l5.886,5.883a4.9,4.9,0,0,1,1.386,3.549v4.176a.835.835,0,0,0,1.67,0v-4.176a6.561,6.561,0,0,0-1.915-4.767L57.247,274.6a3.429,3.429,0,0,0-2.277-1.029,3.174,3.174,0,0,0-3.274,3.273Z" transform="translate(-46.634 -246.79)" fill="#e63036"/>
      <path id="Path_23" data-name="Path 23" d="M225.208,87.839a1.672,1.672,0,0,1,1.67,1.67.835.835,0,1,0,1.67,0,3.337,3.337,0,0,0-2.506-3.222v-.119a.835.835,0,0,0-1.67,0v.119a3.334,3.334,0,0,0,.835,6.563,1.67,1.67,0,1,1-1.67,1.67.835.835,0,1,0-1.67,0,3.337,3.337,0,0,0,2.506,3.222v.119a.835.835,0,1,0,1.67,0v-.119a3.334,3.334,0,0,0-.835-6.563,1.67,1.67,0,1,1,0-3.341Z" transform="translate(-200.151 -76.981)" fill="#e63036"/>
      <path id="Path_24" data-name="Path 24" d="M65.4,460.8H52.035a.835.835,0,0,0-.835.835v3.341a.835.835,0,1,0,1.67,0V462.47H64.564v2.506a.835.835,0,1,0,1.67,0v-3.341A.835.835,0,0,0,65.4,460.8Z" transform="translate(-46.189 -415.698)" fill="#e63036"/>
      <path id="Path_25" data-name="Path 25" d="M321.4,460.8H308.035a.835.835,0,0,0-.835.835v3.341a.835.835,0,1,0,1.67,0V462.47h11.693v2.506a.835.835,0,1,0,1.67,0v-3.341A.835.835,0,0,0,321.4,460.8Z" transform="translate(-277.132 -415.698)" fill="#e63036"/>
      <path id="Path_26" data-name="Path 26" d="M148.226,34.133a11.693,11.693,0,1,0,11.693,11.693A11.706,11.706,0,0,0,148.226,34.133Zm0,21.716a10.023,10.023,0,1,1,10.023-10.023A10.034,10.034,0,0,1,148.226,55.849Z" transform="translate(-123.169 -30.792)" fill="#e63036"/>
      <path id="Path_27" data-name="Path 27" d="M416.279,153.6a3.344,3.344,0,0,0-3.341,3.341v6.612a.835.835,0,0,0,1.67,0v-6.612a1.67,1.67,0,1,1,3.341,0v12.528a4.807,4.807,0,0,1-1.426,3.586l-6.682,6.682a.835.835,0,1,0,1.181,1.181l6.63-6.634a6.464,6.464,0,0,0,1.967-4.814V156.941A3.344,3.344,0,0,0,416.279,153.6Z" transform="translate(-369.507 -138.566)" fill="#e63036"/>
      <path id="Path_28" data-name="Path 28" d="M132.468,15.034a15.034,15.034,0,1,0-15.034,15.034A15.051,15.051,0,0,0,132.468,15.034ZM117.434,28.4A13.364,13.364,0,1,1,130.8,15.034,13.379,13.379,0,0,1,117.434,28.4Z" transform="translate(-92.377)" fill="#e63036"/>
    </g>
  </g>
</svg>
