<svg xmlns="http://www.w3.org/2000/svg" xmlns:xlink="http://www.w3.org/1999/xlink" width="80" height="50" viewBox="0 0 80 50">
  <defs>
    <clipPath id="clip-Your_Need_Icon_1">
      <rect width="80" height="50"/>
    </clipPath>
  </defs>
  <g id="Your_Need_Icon_1" data-name="Your Need Icon 1" clip-path="url(#clip-Your_Need_Icon_1)">
    <g id="YourNeedIcon1_1645166414" transform="translate(2.64 -98.174)">
      <g id="Group_3" data-name="Group 3" transform="translate(0 101.98)">
        <g id="Group_2" data-name="Group 2" transform="translate(0 0)">
          <path id="Path_8" data-name="Path 8" d="M74.3,283.111a4.091,4.091,0,1,0,4.091,4.091A4.1,4.1,0,0,0,74.3,283.111Zm0,5.731a1.64,1.64,0,1,1,1.64-1.64A1.642,1.642,0,0,1,74.3,288.842Z" transform="translate(-58.742 -253.518)" fill="#e63036"/>
          <path id="Path_9" data-name="Path 9" d="M336.063,283.111a4.091,4.091,0,1,0,4.091,4.091A4.1,4.1,0,0,0,336.063,283.111Zm0,5.731a1.64,1.64,0,1,1,1.64-1.64A1.642,1.642,0,0,1,336.063,288.842Z" transform="translate(-277.735 -253.518)" fill="#e63036"/>
          <path id="Path_10" data-name="Path 10" d="M66.859,117.41l-10.933-1.249-5.835-9.485a9.928,9.928,0,0,0-8.4-4.7H21.84a12.753,12.753,0,0,0-12.264,9.344l-.155.563a8.192,8.192,0,0,1-5.645,5.679A5.2,5.2,0,0,0,0,122.555v13.562a1.225,1.225,0,0,0,1.225,1.225h6.3a8.211,8.211,0,0,0,16.075,0H50.291a8.211,8.211,0,0,0,16.075,0h6.613a1.225,1.225,0,0,0,1.217-1.086l.96-8.411A9.44,9.44,0,0,0,66.859,117.41ZM7.389,134.892H2.451V133.4H7.67A8.163,8.163,0,0,0,7.389,134.892Zm8.173,6.532a5.76,5.76,0,1,1,5.76-5.76A5.766,5.766,0,0,1,15.562,141.424Zm42.766,0a5.76,5.76,0,1,1,5.76-5.76A5.766,5.766,0,0,1,58.328,141.424Zm13.557-6.532H66.5a8.148,8.148,0,0,0-.282-1.489h5.835Zm.836-7.325-.386,3.385H65.047a8.2,8.2,0,0,0-13.437,0H29.8a1.225,1.225,0,0,0,0,2.451H50.437a8.162,8.162,0,0,0-.282,1.489H23.736a8.206,8.206,0,0,0-14.892-3.94H2.451v-8.4a2.743,2.743,0,0,1,1.991-2.63,10.656,10.656,0,0,0,7.342-7.388l.155-.563a10.3,10.3,0,0,1,9.9-7.544H41.69A7.461,7.461,0,0,1,48,107.96l6.147,9.993a1.226,1.226,0,0,0,.9.575l11.525,1.317a6.984,6.984,0,0,1,5.664,4.293H68.42a1.225,1.225,0,1,0,0,2.451h4.342A7.009,7.009,0,0,1,72.721,127.567Z" transform="translate(0 -101.98)" fill="#e63036"/>
          <path id="Path_11" data-name="Path 11" d="M236.105,215.223H233.53a1.225,1.225,0,0,0,0,2.451h2.575a1.225,1.225,0,1,0,0-2.451Z" transform="translate(-194.351 -196.721)" fill="#e63036"/>
          <path id="Path_12" data-name="Path 12" d="M129.112,216.448a1.225,1.225,0,0,0-1.225-1.225h-2.575a1.225,1.225,0,0,0,0,2.451h2.575A1.225,1.225,0,0,0,129.112,216.448Z" transform="translate(-103.813 -196.721)" fill="#e63036"/>
          <path id="Path_13" data-name="Path 13" d="M152.063,280.068c-.014-.033-.009-.021,0,0a1.221,1.221,0,1,0,0,.009C152.072,280.09,152.078,280.1,152.063,280.068Z" transform="translate(-125.247 -250.339)" fill="#e63036"/>
          <path id="Path_14" data-name="Path 14" d="M108.907,128.964a5.95,5.95,0,0,0-5.039-2.817H84.018a8.793,8.793,0,0,0-8.457,6.444l-.154.562c-.4,1.463-1.024,3.977-1.05,4.083a1.225,1.225,0,0,0,1.19,1.519h37.192a1.225,1.225,0,0,0,1.044-1.867ZM81.016,136.3h-3.9c.207-.816.459-1.8.654-2.5l.154-.562a6.327,6.327,0,0,1,3.091-3.88ZM94.749,128.6V136.3H83.467v-7.682c.182-.016.366-.025.551-.025ZM97.2,136.3V128.6h6.669a3.484,3.484,0,0,1,2.951,1.65l3.726,6.056Z" transform="translate(-62.179 -122.199)" fill="#e63036"/>
        </g>
      </g>
    </g>
  </g>
</svg>
