<svg xmlns="http://www.w3.org/2000/svg" width="45.745" height="45.891" viewBox="0 0 45.745 45.891">
  <g id="investing" transform="translate(-19.122 -16)">
    <path id="Path_3081" data-name="Path 3081" d="M169.533,249.209h1.535v-1.573a1.919,1.919,0,0,0-.384-3.8h-.767a.384.384,0,1,1,0-.767H172.6v-1.535h-1.535V240h-1.535v1.573a1.919,1.919,0,0,0,.384,3.8h.767a.384.384,0,1,1,0,.767H168v1.535h1.535Z" transform="translate(-134.595 -202.513)" fill="#707070"/>
    <path id="Path_3082" data-name="Path 3082" d="M63.332,129.209a.767.767,0,0,0-.767-.767h-4.6a.767.767,0,0,0-.767.767v3.07H53.356a.767.767,0,0,0-.767.767v2.3H48.751a.767.767,0,0,0-.767.767v7.243l-3.093-3.712a8.628,8.628,0,0,0-.423-8.023l3.018-2.414h5.1v-1.535H47.216a.767.767,0,0,0-.479.168l-3.17,2.536c-.022-.026-.043-.052-.066-.077l-3.837-4.317.693-1.733a1.6,1.6,0,0,0-1.99-2.11.063.063,0,0,1-.073-.025l-.757-1.136a2.2,2.2,0,0,0-3.663,0l-.757,1.136a.064.064,0,0,1-.073.025,1.6,1.6,0,0,0-1.99,2.11l.693,1.733L27.91,130.3a8.627,8.627,0,0,0-1.587,8.876l-7.2,5.539.936,1.216,1.574-1.211,6.092,8.123-2.456,1.842.921,1.228,3-2.247,5.287-2.266a.768.768,0,0,0,.384-.362l1.386-2.773,6.416-1.925a2.087,2.087,0,0,0,.435-3.811l.979-1.468,3.321,3.985a.767.767,0,0,0,.59.276H64.867v-1.535H63.332Zm-30.84-5.6a.054.054,0,0,1,.067-.017,1.6,1.6,0,0,0,1.836-.63l.757-1.136a.666.666,0,0,1,1.109,0l.757,1.136a1.6,1.6,0,0,0,1.835.63.064.064,0,0,1,.079.084l-.676,1.691h-5.1l-.676-1.691a.054.054,0,0,1,.013-.067Zm-5.228,12.422a7.091,7.091,0,0,1,1.793-4.716l3.923-4.414h1a4.664,4.664,0,0,0-.541,4.08L34.9,130.5a3.142,3.142,0,0,1,.763-3.233l.044-.044.044.044a3.142,3.142,0,0,1,.763,3.233l1.456.485a4.664,4.664,0,0,0-.541-4.08h1l3.924,4.414a7.1,7.1,0,0,1,.6,8.653l-1.521,2.281H31.575l.718-1.436a3.259,3.259,0,0,0,.342-1.45,2.485,2.485,0,0,0-4-1.97l-1.034.8a7.14,7.14,0,0,1-.337-2.158Zm14.954,8.835-6.733,2.02a.768.768,0,0,0-.466.392L33.61,150.1l-4.559,1.954-6.2-8.27,6.722-5.171a.951.951,0,0,1,1.53.753,1.716,1.716,0,0,1-.18.764l-1.273,2.547a.767.767,0,0,0,.686,1.111H42.059a.553.553,0,0,1,.159,1.082Zm7.3-7.989h3.07v6.907h-3.07Zm4.6-3.07h3.07v9.976h-3.07Zm4.6,9.976V129.976H61.8v13.813Z" transform="translate(0 -94.024)" fill="#707070"/>
    <path id="Path_3083" data-name="Path 3083" d="M328.441,16a8.441,8.441,0,1,0,8.441,8.441A8.441,8.441,0,0,0,328.441,16Zm6.863,7.674h-3.1a3.849,3.849,0,0,0-2.992-2.992v-3.1A6.918,6.918,0,0,1,335.3,23.674Zm-3.663,2.882a3.815,3.815,0,0,0,.56-1.347h3.1a6.873,6.873,0,0,1-1.47,3.54Zm-3.2-4.417a2.3,2.3,0,1,1-2.3,2.3A2.3,2.3,0,0,1,328.441,22.139Zm-6.907,2.3a6.916,6.916,0,0,1,6.139-6.863v3.1a3.837,3.837,0,1,0,2.882,6.959l2.193,2.193a6.9,6.9,0,0,1-11.214-5.393Z" transform="translate(-272.016)" fill="#707070"/>
  </g>
</svg>
