<svg id="DownloadTitleIcon15_1640019503" xmlns="http://www.w3.org/2000/svg" width="50.68" height="50.68" viewBox="0 0 50.68 50.68">
  <g id="Group_28" data-name="Group 28">
    <rect id="Rectangle_34" data-name="Rectangle 34" width="2" height="2" transform="translate(37.34 26.34)"/>
    <path id="Path_64" data-name="Path 64" d="M1.689,11.825h9.291a.8.8,0,0,0,.845-.845V1.689h25.34V4.223h1.689V.845A.8.8,0,0,0,38.01,0H10.981a.31.31,0,0,0-.253.084h-.084c-.084.084-.169.084-.253.169L.253,10.389c-.084.084-.084.169-.169.253v.084c0,.084-.084.169-.084.253H0V49.835a.8.8,0,0,0,.845.845H31.252V48.99H1.689Zm8.447-1.689H2.872L6.5,6.5l3.632-3.632v7.264Z"/>
    <path id="Path_65" data-name="Path 65" d="M47.291,25.583A9.291,9.291,0,1,0,38,16.291,9.264,9.264,0,0,0,47.291,25.583Zm0-16.893a7.6,7.6,0,1,1-7.6,7.6A7.57,7.57,0,0,1,47.291,8.689Z" transform="translate(-5.903 -1.087)"/>
    <path id="Path_66" data-name="Path 66" d="M46.689,21.136h.845v1.689h1.689V21.136h.845a1.6,1.6,0,0,0,1.689-1.689V17.757a1.6,1.6,0,0,0-1.689-1.689H46.689V14.379h3.379v.845h1.689v-.845a1.6,1.6,0,0,0-1.689-1.689h-.845V11H47.534v1.689h-.845A1.6,1.6,0,0,0,45,14.379v1.689a1.6,1.6,0,0,0,1.689,1.689h3.379v1.689H46.689V18.6H45v.845A1.6,1.6,0,0,0,46.689,21.136Z" transform="translate(-6.99 -1.709)"/>
    <path id="Path_67" data-name="Path 67" d="M56.049,36h-15.2a.8.8,0,0,0-.845.845V55.427a.8.8,0,0,0,.845.845h15.2a.8.8,0,0,0,.845-.845V36.845A.8.8,0,0,0,56.049,36ZM55.2,37.689v3.379H41.689V37.689ZM41.689,54.583V42.757H55.2V54.583Z" transform="translate(-6.214 -5.592)"/>
    <rect id="Rectangle_35" data-name="Rectangle 35" width="1" height="1" transform="translate(38.34 39.34)"/>
    <rect id="Rectangle_36" data-name="Rectangle 36" width="2" height="1" transform="translate(41.34 39.34)"/>
    <rect id="Rectangle_37" data-name="Rectangle 37" width="2" height="1" transform="translate(44.34 39.34)"/>
    <rect id="Rectangle_38" data-name="Rectangle 38" width="1" height="2" transform="translate(38.34 42.34)"/>
    <rect id="Rectangle_39" data-name="Rectangle 39" width="2" height="2" transform="translate(41.34 42.34)"/>
    <rect id="Rectangle_40" data-name="Rectangle 40" width="2" height="2" transform="translate(44.34 42.34)"/>
    <rect id="Rectangle_41" data-name="Rectangle 41" width="1" height="2" transform="translate(38.34 45.34)"/>
    <rect id="Rectangle_42" data-name="Rectangle 42" width="2" height="2" transform="translate(41.34 45.34)"/>
    <rect id="Rectangle_43" data-name="Rectangle 43" width="2" height="2" transform="translate(44.34 45.34)"/>
    <rect id="Rectangle_44" data-name="Rectangle 44" width="2" height="1" transform="translate(36.34 33.34)"/>
    <rect id="Rectangle_45" data-name="Rectangle 45" width="1" height="1" transform="translate(39.34 33.34)"/>
    <rect id="Rectangle_46" data-name="Rectangle 46" width="2" height="1" transform="translate(41.34 33.34)"/>
    <rect id="Rectangle_47" data-name="Rectangle 47" width="1" height="1" transform="translate(44.34 33.34)"/>
    <rect id="Rectangle_48" data-name="Rectangle 48" width="2" height="1" transform="translate(46.34 33.34)"/>
    <rect id="Rectangle_49" data-name="Rectangle 49" width="5" height="2" transform="translate(16.34 4.34)"/>
    <rect id="Rectangle_50" data-name="Rectangle 50" width="12" height="2" transform="translate(16.34 8.34)"/>
    <path id="Path_68" data-name="Path 68" d="M8.834,18.253,6.3,20.787,7.483,21.97l1.1-1.1V32.359H10.27V20.872l1.1,1.1,1.183-1.183-2.534-2.534A.817.817,0,0,0,8.834,18.253Z" transform="translate(-0.979 -2.796)"/>
    <path id="Path_69" data-name="Path 69" d="M17.483,25.97l1.1-1.1v8.109H20.27V24.872l1.1,1.1,1.183-1.183-2.534-2.534a.817.817,0,0,0-1.183,0L16.3,24.787Z" transform="translate(-2.532 -3.417)"/>
    <path id="Path_70" data-name="Path 70" d="M30.27,18.872l1.1,1.1,1.183-1.183-2.534-2.534a.817.817,0,0,0-1.183,0L26.3,18.787l1.183,1.183,1.1-1.1V32.049H30.27V18.872Z" transform="translate(-4.085 -2.485)"/>
    <rect id="Rectangle_51" data-name="Rectangle 51" width="13" height="2" transform="translate(7.34 33.34)"/>
    <rect id="Rectangle_52" data-name="Rectangle 52" width="22" height="1" transform="translate(7.34 38.34)"/>
    <rect id="Rectangle_53" data-name="Rectangle 53" width="22" height="2" transform="translate(7.34 42.34)"/>
    <rect id="Rectangle_54" data-name="Rectangle 54" width="3" height="2" transform="translate(22.34 33.34)"/>
  </g>
</svg>
