<svg xmlns="http://www.w3.org/2000/svg" width="50.482" height="50.482" viewBox="0 0 50.482 50.482">
  <path id="BI-Annual_Financials" data-name="BI-Annual Financials" d="M49.027,33.677A25.23,25.23,0,0,0,40.106,4.84a1.377,1.377,0,0,0-1.623,2.224,22.469,22.469,0,0,1,8.331,24.509L27.039,24.427l8.2-20.9a1.385,1.385,0,0,0-.779-1.792,25.237,25.237,0,0,0-26.783,5.4,1.366,1.366,0,0,0-.131.112,1.4,1.4,0,0,0-.11.123A25.229,25.229,0,0,0,25.241,50.482a1.377,1.377,0,1,0,0-2.754A22.475,22.475,0,0,1,8.529,10.212L23.984,25.926l5.14,22.9h0a.026.026,0,0,1,0,0,1.376,1.376,0,0,0,1.644,1.043A25.224,25.224,0,0,0,48.921,33.967a1.312,1.312,0,0,0,.106-.29ZM32.156,3.838,24.734,22.762,10.491,8.281A22.489,22.489,0,0,1,32.156,3.838Zm10.56,35.556A22.6,22.6,0,0,1,31.5,46.84L27.134,27.389l18.745,6.774A22.388,22.388,0,0,1,42.717,39.394Z"/>
</svg>
