<svg id="DownloadTitleIcon26_1640019503" xmlns="http://www.w3.org/2000/svg" width="50.655" height="50.655" viewBox="0 0 50.655 50.655">
  <g id="Group_27" data-name="Group 27">
    <g id="Group_26" data-name="Group 26">
      <path id="Path_61" data-name="Path 61" d="M50.655,8.17V4.9a4.907,4.907,0,0,0-4.9-4.9H13.072a4.907,4.907,0,0,0-4.9,4.9V7.3l-.734-.734L1.659,12.338l2.2,2.2a13,13,0,0,0-.743,1.8H0v8.17H3.115a13,13,0,0,0,.743,1.8l-2.2,2.2L7.435,34.29l.735-.734v8.929H0v3.268a4.907,4.907,0,0,0,4.9,4.9H37.583a4.907,4.907,0,0,0,4.9-4.9V36.615a2.436,2.436,0,0,0,1.2-3.689l4.223-8.445a2.514,2.514,0,0,0,.3.029,2.462,2.462,0,1,0-1.762-.754l-3.957,7.914V8.17ZM42.485,4.9a3.268,3.268,0,1,1,6.536,0V6.536H42.485ZM48.2,21.242a.817.817,0,1,1-.817.817A.817.817,0,0,1,48.2,21.242ZM7.436,31.98,3.968,28.513,5.883,26.6l-.308-.542a11.381,11.381,0,0,1-1.066-2.582l-.166-.6H1.634v-4.9H4.343l.166-.6a11.365,11.365,0,0,1,1.066-2.582l.308-.542L3.968,12.338,7.435,8.871l1.914,1.915.542-.308a11.365,11.365,0,0,1,2.582-1.066l.6-.167V6.536h4.9V9.245l.6.166a11.365,11.365,0,0,1,2.582,1.066l.542.308L23.611,8.87l3.467,3.467-1.915,1.914.308.542a11.381,11.381,0,0,1,1.066,2.582l.167.6h2.709v4.9H26.7l-.166.6a11.365,11.365,0,0,1-1.066,2.582l-.308.542,1.915,1.914L23.612,31.98,21.7,30.064l-.542.308a11.381,11.381,0,0,1-2.582,1.066l-.6.167v2.709h-4.9V31.605l-.6-.166a11.365,11.365,0,0,1-2.582-1.066l-.542-.308ZM4.9,49.021a3.271,3.271,0,0,1-3.268-3.268V44.119H32.681v1.634a4.886,4.886,0,0,0,1.251,3.268Zm35.949-3.268a3.268,3.268,0,1,1-6.536,0V42.485H9.8V32.166a12.868,12.868,0,0,0,1.634.667v3.116h8.17V32.833a13,13,0,0,0,1.8-.743l2.2,2.2,5.777-5.777-2.2-2.2a13,13,0,0,0,.743-1.8h3.116V16.34H27.93a13,13,0,0,0-.743-1.8l2.2-2.2L23.611,6.561l-2.2,2.2a13,13,0,0,0-1.8-.743V4.9h-8.17V8.018A12.99,12.99,0,0,0,9.8,8.685V4.9a3.271,3.271,0,0,1,3.268-3.268H42.109A4.879,4.879,0,0,0,40.851,4.9V32.014a2.439,2.439,0,0,0-.857.52L35.823,30.15a2.426,2.426,0,0,0,.126-.738,2.451,2.451,0,1,0-4.9,0,2.411,2.411,0,0,0,.246,1.05l-4.914,4.914a2.428,2.428,0,0,0-1.051-.245,2.451,2.451,0,1,0,2.451,2.451,2.422,2.422,0,0,0-.246-1.05l4.914-4.914a2.4,2.4,0,0,0,2.382-.154l4.42,2.525a2.358,2.358,0,0,0-.033.324,2.447,2.447,0,0,0,1.634,2.3Zm-6.536-16.34A.817.817,0,1,1,33.5,28.6.817.817,0,0,1,34.315,29.412Zm-8.17,8.17a.817.817,0,1,1-.817-.817A.817.817,0,0,1,26.144,37.583Zm15.523-2.451a.817.817,0,1,1,.817-.817A.817.817,0,0,1,41.668,35.132Z"/>
      <path id="Path_62" data-name="Path 62" d="M75.608,113.8a9.8,9.8,0,1,0-9.8,9.8A9.815,9.815,0,0,0,75.608,113.8Zm-17.974,0a8.17,8.17,0,1,1,8.17,8.17A8.179,8.179,0,0,1,57.634,113.8Z" transform="translate(-50.281 -93.379)"/>
      <path id="Path_63" data-name="Path 63" d="M116.9,149.072v-1.634h.409a2.86,2.86,0,1,0,0-5.719H114.86a1.226,1.226,0,1,1,0-2.451h2.451a1.227,1.227,0,0,1,1.226,1.226v.409h1.634v-.409a2.863,2.863,0,0,0-2.86-2.86H116.9V136h-1.634v1.634h-.409a2.86,2.86,0,1,0,0,5.719h2.451a1.226,1.226,0,1,1,0,2.451H114.86a1.227,1.227,0,0,1-1.226-1.226v-.408H112v.408a2.863,2.863,0,0,0,2.86,2.86h.409v1.634Z" transform="translate(-100.562 -122.111)"/>
      <rect id="Rectangle_24" data-name="Rectangle 24" width="1" height="2" transform="translate(34.327 3.327)"/>
      <rect id="Rectangle_25" data-name="Rectangle 25" width="1.634" height="1.634" transform="translate(32.819 3.885) rotate(45)"/>
      <rect id="Rectangle_26" data-name="Rectangle 26" width="2" height="2" transform="translate(31.327 6.327)"/>
      <rect id="Rectangle_27" data-name="Rectangle 27" width="1.634" height="1.634" transform="translate(32.82 10.82) rotate(-135)"/>
      <rect id="Rectangle_28" data-name="Rectangle 28" width="1" height="2" transform="translate(34.327 10.327)"/>
      <rect id="Rectangle_29" data-name="Rectangle 29" width="1.634" height="1.634" transform="translate(37.443 10.821) rotate(-135)"/>
      <rect id="Rectangle_30" data-name="Rectangle 30" width="1" height="2" transform="translate(37.327 6.327)"/>
      <rect id="Rectangle_31" data-name="Rectangle 31" width="1.634" height="1.634" transform="translate(37.441 3.885) rotate(45)"/>
      <rect id="Rectangle_32" data-name="Rectangle 32" width="1" height="9" transform="translate(34.327 13.327)"/>
      <rect id="Rectangle_33" data-name="Rectangle 33" width="1" height="2" transform="translate(34.327 23.327)"/>
    </g>
  </g>
</svg>
