<svg xmlns="http://www.w3.org/2000/svg" width="35.611" height="50.68" viewBox="0 0 35.611 50.68">
  <g id="DownloadTitleIcon11_1640019683" transform="translate(-72.313)">
    <g id="Group_30" data-name="Group 30" transform="translate(72.313)">
      <g id="Group_29" data-name="Group 29">
        <path id="Path_71" data-name="Path 71" d="M106.934,3.693H97.6V.99a.99.99,0,0,0-.99-.99H83.628a.99.99,0,0,0-.99.99v2.7H73.3a.99.99,0,0,0-.99.99V49.69a.99.99,0,0,0,.99.99h33.631a.99.99,0,0,0,.99-.99V4.682A.99.99,0,0,0,106.934,3.693ZM84.618,1.98h11v5.7h-11ZM105.944,48.7H74.293V5.672h8.346v3a.99.99,0,0,0,.99.99h12.98a.99.99,0,0,0,.99-.99v-3h8.346Z" transform="translate(-72.313)"/>
        <path id="Path_72" data-name="Path 72" d="M123.108,124.576h15.269a.99.99,0,0,0,0-1.98H123.108a.99.99,0,0,0,0,1.98Z" transform="translate(-116.929 -109.822)"/>
        <path id="Path_73" data-name="Path 73" d="M146.659,171.443H123.108a.99.99,0,1,0,0,1.98h23.552a.99.99,0,0,0,0-1.98Z" transform="translate(-116.929 -153.58)"/>
        <path id="Path_74" data-name="Path 74" d="M146.659,220.291H123.108a.99.99,0,0,0,0,1.98h23.552a.99.99,0,0,0,0-1.98Z" transform="translate(-116.929 -197.338)"/>
        <path id="Path_75" data-name="Path 75" d="M146.659,266.264H123.108a.99.99,0,0,0,0,1.98h23.552a.99.99,0,0,0,0-1.98Z" transform="translate(-116.929 -238.521)"/>
        <path id="Path_76" data-name="Path 76" d="M317.539,124.576h3.293a.99.99,0,1,0,0-1.98h-3.293a.99.99,0,1,0,0,1.98Z" transform="translate(-291.101 -109.822)"/>
        <path id="Path_77" data-name="Path 77" d="M197.262,333.189a.99.99,0,0,0-.294-.7l-3.775-3.736a.99.99,0,0,0-1.362-.029,6.241,6.241,0,0,0-.2,9.074.99.99,0,0,0,1.393,0l3.942-3.9A.99.99,0,0,0,197.262,333.189Zm-4.853,2.431a4.256,4.256,0,0,1,.132-4.731l2.324,2.3Z" transform="translate(-177.536 -294.239)"/>
        <path id="Path_78" data-name="Path 78" d="M262.186,316.947h0a6.372,6.372,0,0,0-8.751-.187.99.99,0,0,0-.031,1.436l3.064,3.033-3.231,3.2a.99.99,0,0,0,0,1.407,6.345,6.345,0,0,0,10.808-4.444,6.211,6.211,0,0,0-1.859-4.443Zm-6.556.667a4.409,4.409,0,0,1,4.371.118l-2.126,2.1Zm2.081,8.076a4.366,4.366,0,0,1-2.289-.64l3.919-3.879,2.07-2.049a4.232,4.232,0,0,1,.654,2.269A4.332,4.332,0,0,1,257.711,325.689Z" transform="translate(-234.123 -282.279)"/>
        <path id="Path_79" data-name="Path 79" d="M210.505,34.2H207.14a.99.99,0,1,0,0,1.98h3.365a.99.99,0,1,0,0-1.98Z" transform="translate(-192.205 -30.637)"/>
      </g>
    </g>
  </g>
</svg>
