<svg xmlns="http://www.w3.org/2000/svg" width="50.938" height="50.938" viewBox="0 0 50.938 50.938">
  <path id="Audited_Financials" data-name="Audited Financials" d="M0,0H3.184V47.755H50.938v3.184H0ZM31.837,11.143a1.592,1.592,0,0,1,1.592-1.592H46.163a1.592,1.592,0,0,1,1.592,1.592V23.877a1.592,1.592,0,0,1-3.184,0V15.6l-11.5,14.062a1.592,1.592,0,0,1-2.356.118l-8.236-8.236-11.639,16a1.592,1.592,0,0,1-2.572-1.872L21,18.166a1.592,1.592,0,0,1,2.413-.191l8.306,8.309L42.8,12.735H33.428A1.592,1.592,0,0,1,31.837,11.143Z" fill-rule="evenodd"/>
</svg>
