<svg id="Quarterly_Financials" data-name="Quarterly Financials" xmlns="http://www.w3.org/2000/svg" width="49.101" height="49.101" viewBox="0 0 49.101 49.101">
  <g id="Group_32" data-name="Group 32">
    <g id="Group_31" data-name="Group 31">
      <path id="Path_80" data-name="Path 80" d="M36.837,97.293,32.47,94.672,28.1,97.293l.816,1.357,2.76-1.656v12.064H23.758v7.919H15.839V124.9H7.919v7.919H0V134.4H9.5v-7.919h7.919v-7.919h7.919v-7.919h7.919V96.994l2.76,1.656Z" transform="translate(0 -85.3)"/>
      <path id="Path_81" data-name="Path 81" d="M362.777,8.663a3.953,3.953,0,0,0,3.478-3.911V0H352V4.752a3.953,3.953,0,0,0,3.478,3.911,3.974,3.974,0,0,0,2.857,2.344v4.832H352v1.584h14.255V15.839h-6.336V11.007A3.975,3.975,0,0,0,362.777,8.663Zm.31-7.079h1.584V4.752a2.373,2.373,0,0,1-1.584,2.23Zm-7.919,5.4a2.372,2.372,0,0,1-1.584-2.23V1.584h1.584Zm3.96,2.522a2.379,2.379,0,0,1-2.376-2.376V1.584H361.5V7.127A2.379,2.379,0,0,1,359.128,9.5Z" transform="translate(-317.154)"/>
      <path id="Path_82" data-name="Path 82" d="M112,438.336h6.336V432H112Zm1.584-4.752h3.168v3.168h-3.168Z" transform="translate(-100.913 -389.235)"/>
      <path id="Path_83" data-name="Path 83" d="M192,366.255h6.336V352H192Zm1.584-12.671h3.168v11.087h-3.168Z" transform="translate(-172.993 -317.154)"/>
      <path id="Path_84" data-name="Path 84" d="M272,294.174h6.336V272H272Zm1.584-20.591h3.168v19.007h-3.168Z" transform="translate(-245.074 -245.074)"/>
      <path id="Path_85" data-name="Path 85" d="M352,222.094h6.336V192H352Zm1.584-28.51h3.168V220.51h-3.168Z" transform="translate(-317.154 -172.993)"/>
      <path id="Path_86" data-name="Path 86" d="M432,222.094h6.336V192H432Zm1.584-28.51h3.168V220.51h-3.168Z" transform="translate(-389.235 -172.993)"/>
      <path id="Path_87" data-name="Path 87" d="M3.168,26.134A3.161,3.161,0,0,0,5,20.393L8.89,13.912a3.1,3.1,0,0,0,3.124-.171l4.2,3a3.126,3.126,0,0,0-.379,1.471,3.168,3.168,0,1,0,5.268-2.354l5.124-9.608a3.2,3.2,0,1,0-1.4-.732L19.7,15.129a3.088,3.088,0,0,0-2.415.432l-4.2-3a3.126,3.126,0,0,0,.379-1.471,3.168,3.168,0,1,0-5.79,1.775L3.492,19.831a3.115,3.115,0,0,0-.324-.032,3.168,3.168,0,1,0,0,6.336ZM26.926,1.584a1.584,1.584,0,1,1-1.584,1.584A1.587,1.587,0,0,1,26.926,1.584ZM19.007,16.631a1.584,1.584,0,1,1-1.584,1.584A1.586,1.586,0,0,1,19.007,16.631ZM10.3,9.5a1.584,1.584,0,1,1-1.584,1.584A1.587,1.587,0,0,1,10.3,9.5ZM3.168,21.382a1.584,1.584,0,1,1-1.584,1.584A1.586,1.586,0,0,1,3.168,21.382Z"/>
    </g>
  </g>
</svg>
